<mxfile host="app.diagrams.net" agent="Mozilla/5.0 (Macintosh; Intel Mac OS X 10_15_7) AppleWebKit/537.36 (KHTML, like Gecko) Chrome/133.0.0.0 Safari/537.36" version="26.1.0">
  <diagram name="第 1 页" id="79Vka3r3YxKAbmJHLwYh">
    <mxGraphModel dx="1080" dy="1791" grid="1" gridSize="10" guides="1" tooltips="1" connect="1" arrows="1" fold="1" page="1" pageScale="1" pageWidth="827" pageHeight="1169" math="0" shadow="0">
      <root>
        <mxCell id="0" />
        <mxCell id="1" parent="0" />
        <mxCell id="GJfXwHaCfxN24noavC6G-3" value="" style="whiteSpace=wrap;html=1;aspect=fixed;fillColor=#dae8fc;strokeColor=#6c8ebf;" vertex="1" parent="1">
          <mxGeometry x="150" y="10" width="560" height="560" as="geometry" />
        </mxCell>
        <mxCell id="GJfXwHaCfxN24noavC6G-7" value="&lt;font style=&quot;font-size: 19px;&quot;&gt;后端业务结构&lt;/font&gt;" style="text;html=1;align=center;verticalAlign=middle;whiteSpace=wrap;rounded=0;" vertex="1" parent="1">
          <mxGeometry x="360" y="-30" width="140" height="30" as="geometry" />
        </mxCell>
        <mxCell id="GJfXwHaCfxN24noavC6G-8" value="" style="rounded=0;whiteSpace=wrap;html=1;fillColor=#d5e8d4;strokeColor=#82b366;" vertex="1" parent="1">
          <mxGeometry x="160" y="150" width="540" height="110" as="geometry" />
        </mxCell>
        <mxCell id="GJfXwHaCfxN24noavC6G-10" value="" style="rounded=0;whiteSpace=wrap;html=1;fillColor=#f5f5f5;fontColor=#333333;strokeColor=#666666;" vertex="1" parent="1">
          <mxGeometry x="160" y="80" width="540" height="60" as="geometry" />
        </mxCell>
        <mxCell id="GJfXwHaCfxN24noavC6G-12" value="WebApi接口" style="rounded=1;whiteSpace=wrap;html=1;" vertex="1" parent="1">
          <mxGeometry x="380" y="90" width="100" height="40" as="geometry" />
        </mxCell>
        <mxCell id="GJfXwHaCfxN24noavC6G-13" value="Controller控制器" style="text;html=1;align=center;verticalAlign=middle;whiteSpace=wrap;rounded=0;" vertex="1" parent="1">
          <mxGeometry x="180" y="97.5" width="100" height="25" as="geometry" />
        </mxCell>
        <mxCell id="GJfXwHaCfxN24noavC6G-14" value="信息安全层" style="rounded=1;whiteSpace=wrap;html=1;" vertex="1" parent="1">
          <mxGeometry x="380" y="180" width="100" height="40" as="geometry" />
        </mxCell>
        <mxCell id="GJfXwHaCfxN24noavC6G-16" value="Token" style="rounded=0;whiteSpace=wrap;html=1;" vertex="1" parent="1">
          <mxGeometry x="170" y="170" width="70" height="30" as="geometry" />
        </mxCell>
        <mxCell id="GJfXwHaCfxN24noavC6G-18" value="User" style="rounded=0;whiteSpace=wrap;html=1;" vertex="1" parent="1">
          <mxGeometry x="270" y="170" width="70" height="30" as="geometry" />
        </mxCell>
        <mxCell id="GJfXwHaCfxN24noavC6G-19" value="Data Sign" style="rounded=0;whiteSpace=wrap;html=1;" vertex="1" parent="1">
          <mxGeometry x="170" y="210" width="70" height="30" as="geometry" />
        </mxCell>
        <mxCell id="GJfXwHaCfxN24noavC6G-20" value="ApiKey" style="rounded=0;whiteSpace=wrap;html=1;" vertex="1" parent="1">
          <mxGeometry x="270" y="210" width="70" height="30" as="geometry" />
        </mxCell>
        <mxCell id="GJfXwHaCfxN24noavC6G-21" value="登录日志" style="rounded=0;whiteSpace=wrap;html=1;" vertex="1" parent="1">
          <mxGeometry x="510" y="170" width="70" height="30" as="geometry" />
        </mxCell>
        <mxCell id="GJfXwHaCfxN24noavC6G-22" value="访问日志" style="rounded=0;whiteSpace=wrap;html=1;" vertex="1" parent="1">
          <mxGeometry x="510" y="210" width="70" height="30" as="geometry" />
        </mxCell>
        <mxCell id="GJfXwHaCfxN24noavC6G-23" value="限流控制" style="rounded=0;whiteSpace=wrap;html=1;" vertex="1" parent="1">
          <mxGeometry x="620" y="170" width="70" height="30" as="geometry" />
        </mxCell>
        <mxCell id="GJfXwHaCfxN24noavC6G-24" value="黑名单" style="rounded=0;whiteSpace=wrap;html=1;" vertex="1" parent="1">
          <mxGeometry x="620" y="210" width="70" height="30" as="geometry" />
        </mxCell>
        <mxCell id="GJfXwHaCfxN24noavC6G-25" value="" style="rounded=0;whiteSpace=wrap;html=1;fillColor=#e1d5e7;strokeColor=#9673a6;" vertex="1" parent="1">
          <mxGeometry x="160" y="20" width="540" height="50" as="geometry" />
        </mxCell>
        <mxCell id="GJfXwHaCfxN24noavC6G-27" value="客户端调用（前端）" style="rounded=1;whiteSpace=wrap;html=1;" vertex="1" parent="1">
          <mxGeometry x="380" y="25" width="100" height="40" as="geometry" />
        </mxCell>
        <mxCell id="GJfXwHaCfxN24noavC6G-28" value="" style="rounded=0;whiteSpace=wrap;html=1;fillColor=#fff2cc;strokeColor=#d6b656;" vertex="1" parent="1">
          <mxGeometry x="160" y="270" width="540" height="160" as="geometry" />
        </mxCell>
        <mxCell id="GJfXwHaCfxN24noavC6G-30" value="命令处理层" style="rounded=1;whiteSpace=wrap;html=1;" vertex="1" parent="1">
          <mxGeometry x="380" y="310" width="100" height="40" as="geometry" />
        </mxCell>
        <mxCell id="GJfXwHaCfxN24noavC6G-31" value="加密解密" style="rounded=0;whiteSpace=wrap;html=1;" vertex="1" parent="1">
          <mxGeometry x="170" y="290" width="70" height="30" as="geometry" />
        </mxCell>
        <mxCell id="GJfXwHaCfxN24noavC6G-32" value="系统管理" style="rounded=0;whiteSpace=wrap;html=1;" vertex="1" parent="1">
          <mxGeometry x="280" y="290" width="70" height="30" as="geometry" />
        </mxCell>
        <mxCell id="GJfXwHaCfxN24noavC6G-33" value="支付分析" style="rounded=0;whiteSpace=wrap;html=1;" vertex="1" parent="1">
          <mxGeometry x="170" y="335" width="70" height="30" as="geometry" />
        </mxCell>
        <mxCell id="GJfXwHaCfxN24noavC6G-34" value="文件资源" style="rounded=0;whiteSpace=wrap;html=1;" vertex="1" parent="1">
          <mxGeometry x="280" y="335" width="70" height="30" as="geometry" />
        </mxCell>
        <mxCell id="GJfXwHaCfxN24noavC6G-35" value="图片资源" style="rounded=0;whiteSpace=wrap;html=1;" vertex="1" parent="1">
          <mxGeometry x="170" y="380" width="70" height="30" as="geometry" />
        </mxCell>
        <mxCell id="GJfXwHaCfxN24noavC6G-36" value="DataCache" style="rounded=0;whiteSpace=wrap;html=1;" vertex="1" parent="1">
          <mxGeometry x="520" y="290" width="70" height="30" as="geometry" />
        </mxCell>
        <mxCell id="GJfXwHaCfxN24noavC6G-37" value="Log" style="rounded=0;whiteSpace=wrap;html=1;" vertex="1" parent="1">
          <mxGeometry x="620" y="290" width="70" height="30" as="geometry" />
        </mxCell>
        <mxCell id="GJfXwHaCfxN24noavC6G-38" value="Tools" style="rounded=0;whiteSpace=wrap;html=1;" vertex="1" parent="1">
          <mxGeometry x="520" y="335" width="70" height="30" as="geometry" />
        </mxCell>
        <mxCell id="GJfXwHaCfxN24noavC6G-39" value="interface" style="rounded=0;whiteSpace=wrap;html=1;" vertex="1" parent="1">
          <mxGeometry x="620" y="335" width="70" height="30" as="geometry" />
        </mxCell>
        <mxCell id="GJfXwHaCfxN24noavC6G-40" value="Core" style="rounded=0;whiteSpace=wrap;html=1;" vertex="1" parent="1">
          <mxGeometry x="280" y="380" width="70" height="30" as="geometry" />
        </mxCell>
        <mxCell id="GJfXwHaCfxN24noavC6G-41" value="" style="rounded=0;whiteSpace=wrap;html=1;fillColor=#f8cecc;strokeColor=#b85450;" vertex="1" parent="1">
          <mxGeometry x="160" y="440" width="540" height="120" as="geometry" />
        </mxCell>
        <mxCell id="GJfXwHaCfxN24noavC6G-42" value="数据访问层" style="rounded=1;whiteSpace=wrap;html=1;" vertex="1" parent="1">
          <mxGeometry x="380" y="420" width="100" height="40" as="geometry" />
        </mxCell>
        <mxCell id="GJfXwHaCfxN24noavC6G-43" value="SQL命令生成器" style="rounded=1;whiteSpace=wrap;html=1;" vertex="1" parent="1">
          <mxGeometry x="580" y="450" width="100" height="40" as="geometry" />
        </mxCell>
        <mxCell id="GJfXwHaCfxN24noavC6G-44" value="" style="shape=datastore;whiteSpace=wrap;html=1;" vertex="1" parent="1">
          <mxGeometry x="210" y="470" width="60" height="60" as="geometry" />
        </mxCell>
        <mxCell id="GJfXwHaCfxN24noavC6G-45" value="" style="shape=datastore;whiteSpace=wrap;html=1;" vertex="1" parent="1">
          <mxGeometry x="320" y="470" width="60" height="60" as="geometry" />
        </mxCell>
        <mxCell id="GJfXwHaCfxN24noavC6G-46" value="" style="shape=datastore;whiteSpace=wrap;html=1;" vertex="1" parent="1">
          <mxGeometry x="430" y="470" width="60" height="60" as="geometry" />
        </mxCell>
        <mxCell id="GJfXwHaCfxN24noavC6G-47" value="系统数据" style="text;html=1;align=center;verticalAlign=middle;whiteSpace=wrap;rounded=0;" vertex="1" parent="1">
          <mxGeometry x="210" y="530" width="60" height="30" as="geometry" />
        </mxCell>
        <mxCell id="GJfXwHaCfxN24noavC6G-48" value="订单数据" style="text;html=1;align=center;verticalAlign=middle;whiteSpace=wrap;rounded=0;" vertex="1" parent="1">
          <mxGeometry x="320" y="530" width="60" height="30" as="geometry" />
        </mxCell>
        <mxCell id="GJfXwHaCfxN24noavC6G-49" value="日志数据" style="text;html=1;align=center;verticalAlign=middle;whiteSpace=wrap;rounded=0;" vertex="1" parent="1">
          <mxGeometry x="430" y="530" width="60" height="30" as="geometry" />
        </mxCell>
      </root>
    </mxGraphModel>
  </diagram>
</mxfile>
